<svg xmlns="http://www.w3.org/2000/svg" viewBox="0 0 1440 880" font-family="'JetBrains Mono','Fira Code','Cascadia Code',monospace">
  <defs>
    <marker id="a" viewBox="0 0 10 10" refX="8" refY="5" markerWidth="6" markerHeight="6" orient="auto-start-reverse">
      <path d="M2 1L8 5L2 9" fill="none" stroke="context-stroke" stroke-width="1.5" stroke-linecap="round" stroke-linejoin="round"/>
    </marker>
    <pattern id="dots" width="24" height="24" patternUnits="userSpaceOnUse">
      <circle cx="12" cy="12" r="0.5" fill="#504945" opacity="0.35"/>
    </pattern>
    <linearGradient id="bar" x1="0" y1="0" x2="1" y2="0">
      <stop offset="0%" stop-color="#458588"/><stop offset="20%" stop-color="#689d6a"/>
      <stop offset="40%" stop-color="#d79921"/><stop offset="60%" stop-color="#cc241d"/>
      <stop offset="80%" stop-color="#b16286"/><stop offset="100%" stop-color="#d65d0e"/>
    </linearGradient>
  </defs>

  <!-- BG + grid + top bar -->
  <rect width="1440" height="880" rx="14" fill="#1d2021"/>
  <rect width="1440" height="880" rx="14" fill="url(#dots)"/>
  <rect width="1440" height="4" rx="2" fill="url(#bar)"/>

  <!-- Window dots -->
  <circle cx="30" cy="24" r="6" fill="#cc241d" opacity="0.9"/>
  <circle cx="50" cy="24" r="6" fill="#d79921" opacity="0.9"/>
  <circle cx="70" cy="24" r="6" fill="#689d6a" opacity="0.9"/>

  <!-- Title -->
  <text x="720" y="48" text-anchor="middle" fill="#ebdbb2" font-size="24" font-weight="bold">lapdots</text>
  <text x="720" y="68" text-anchor="middle" fill="#928374" font-size="12">ThinkPad T14 Gen 2a · NixOS Unstable · Flakes · Gruvbox Dark Hard</text>

  <!-- ══════════════════════════════════════════════ -->
  <!--  SECTION: FLAKE INPUTS  y=86..156             -->
  <!-- ══════════════════════════════════════════════ -->
  <rect x="56" y="86" width="1328" height="70" rx="10" fill="none" stroke="#504945" stroke-width="0.7" stroke-dasharray="6 3"/>
  <text x="720" y="100" text-anchor="middle" fill="#504945" font-size="9" font-weight="bold" letter-spacing="2">FLAKE INPUTS</text>

  <!-- 6 inputs: each 204w, gap 12, total=6*204+5*12=1284, pad=(1440-1284)/2=78 → start x=78 -->
  <!-- nixpkgs -->
  <rect x="78" y="108" width="204" height="40" rx="7" fill="#45858810" stroke="#458588" stroke-width="0.8"/>
  <rect x="81" y="114" rx="2" width="3" height="28" fill="#458588"/>
  <text x="96" y="126" fill="#83a598" font-weight="bold" font-size="11">nixpkgs</text>
  <text x="96" y="142" fill="#665c54" font-size="9">nixos-unstable</text>

  <!-- home-manager -->
  <rect x="294" y="108" width="204" height="40" rx="7" fill="#689d6a10" stroke="#689d6a" stroke-width="0.8"/>
  <rect x="297" y="114" rx="2" width="3" height="28" fill="#689d6a"/>
  <text x="312" y="126" fill="#8ec07c" font-weight="bold" font-size="11">home-manager</text>
  <text x="312" y="142" fill="#665c54" font-size="9">nix-community</text>

  <!-- agenix -->
  <rect x="510" y="108" width="204" height="40" rx="7" fill="#d7992110" stroke="#d79921" stroke-width="0.8"/>
  <rect x="513" y="114" rx="2" width="3" height="28" fill="#d79921"/>
  <text x="528" y="126" fill="#fabd2f" font-weight="bold" font-size="11">agenix</text>
  <text x="528" y="142" fill="#665c54" font-size="9">ryantm/agenix</text>

  <!-- lanzaboote -->
  <rect x="726" y="108" width="204" height="40" rx="7" fill="#cc241d10" stroke="#cc241d" stroke-width="0.8"/>
  <rect x="729" y="114" rx="2" width="3" height="28" fill="#cc241d"/>
  <text x="744" y="126" fill="#fb4934" font-weight="bold" font-size="11">lanzaboote</text>
  <text x="744" y="142" fill="#665c54" font-size="9">v0.4.2 · secure boot</text>

  <!-- spicetify-nix -->
  <rect x="942" y="108" width="204" height="40" rx="7" fill="#b1628610" stroke="#b16286" stroke-width="0.8"/>
  <rect x="945" y="114" rx="2" width="3" height="28" fill="#b16286"/>
  <text x="960" y="126" fill="#d3869b" font-weight="bold" font-size="11">spicetify-nix</text>
  <text x="960" y="142" fill="#665c54" font-size="9">Gerg-L</text>

  <!-- stylix -->
  <rect x="1158" y="108" width="204" height="40" rx="7" fill="#d6510410" stroke="#d65d0e" stroke-width="0.8"/>
  <rect x="1161" y="114" rx="2" width="3" height="28" fill="#d65d0e"/>
  <text x="1176" y="126" fill="#fe8019" font-weight="bold" font-size="11">stylix</text>
  <text x="1176" y="142" fill="#665c54" font-size="9">danth/stylix</text>

  <!-- ══════════════════════════════════════════════ -->
  <!--  SECTION: FLAKE.NIX  y=172..224               -->
  <!-- ══════════════════════════════════════════════ -->
  <line x1="720" y1="156" x2="720" y2="172" stroke="#928374" stroke-width="1" marker-end="url(#a)"/>

  <rect x="550" y="176" width="340" height="48" rx="8" fill="#fabd2f0c" stroke="#fabd2f" stroke-width="1.2"/>
  <rect x="553" y="183" rx="2" width="3" height="34" fill="#fabd2f"/>
  <text x="568" y="199" fill="#fabd2f" font-weight="bold" font-size="14">flake.nix</text>
  <text x="568" y="216" fill="#928374" font-size="10">specialArgs = { username, inputs }</text>

  <!-- ══════════════════════════════════════════════ -->
  <!--  SECTION: CONFIGURATION.NIX  y=240..288       -->
  <!-- ══════════════════════════════════════════════ -->
  <line x1="720" y1="224" x2="720" y2="240" stroke="#fabd2f" stroke-width="0.8" opacity="0.5" marker-end="url(#a)"/>

  <rect x="510" y="244" width="420" height="48" rx="8" fill="#ebdbb20c" stroke="#ebdbb2" stroke-width="1.2"/>
  <rect x="513" y="251" rx="2" width="3" height="34" fill="#ebdbb2"/>
  <text x="528" y="267" fill="#ebdbb2" font-weight="bold" font-size="14">configuration.nix</text>
  <text x="528" y="284" fill="#928374" font-size="10">Schaltzentrale — hostname = "Laptop" — all imports &amp; toggles</text>

  <!-- ══════════════════════════════════════════════ -->
  <!--  SECTION: TREE  y=308..                       -->
  <!-- ══════════════════════════════════════════════ -->

  <!-- Branch curves from configuration.nix -->
  <path d="M610,292 C610,310 165,325 165,344" stroke="#fb4934" stroke-width="1" fill="none" opacity="0.7" marker-end="url(#a)"/>
  <path d="M720,292 C720,310 720,325 720,344" stroke="#8ec07c" stroke-width="1" fill="none" opacity="0.7" marker-end="url(#a)"/>
  <path d="M830,292 C830,310 1295,325 1295,344" stroke="#d3869b" stroke-width="1" fill="none" opacity="0.7" marker-end="url(#a)"/>

  <!-- ── HOST  x=42..272, y=348..510 ── -->
  <rect x="42" y="348" width="230" height="162" rx="8" fill="#fb493406" stroke="#fb4934" stroke-width="0.8"/>
  <rect x="45" y="355" rx="2" width="3" height="148" fill="#fb4934"/>
  <text x="60" y="370" fill="#fb4934" font-weight="bold" font-size="12">host</text>
  <rect x="228" y="356" rx="4" width="34" height="16" fill="#fb493418"/>
  <text x="245" y="368" text-anchor="middle" fill="#fb4934" font-size="9">3</text>
  <line x1="52" y1="380" x2="262" y2="380" stroke="#fb4934" stroke-width="0.3" opacity="0.35"/>
  <text x="60" y="398" fill="#cc241d" opacity="0.5" font-size="7">●</text>
  <text x="72" y="398" fill="#bdae93" font-size="10">hardware-configuration.nix</text>
  <text x="60" y="418" fill="#cc241d" opacity="0.5" font-size="7">●</text>
  <text x="72" y="418" fill="#bdae93" font-size="10">hardware.nix</text>
  <text x="60" y="438" fill="#cc241d" opacity="0.5" font-size="7">●</text>
  <text x="72" y="438" fill="#bdae93" font-size="10">locale.nix</text>
  <line x1="52" y1="452" x2="262" y2="452" stroke="#fb4934" stroke-width="0.2" opacity="0.2"/>
  <text x="60" y="470" fill="#665c54" font-size="8">kernel, mt7921e, wayland vars</text>
  <text x="60" y="484" fill="#665c54" font-size="8">AMD Ryzen, console keymap</text>
  <text x="60" y="498" fill="#665c54" font-size="8">btrfs, auto-scrub</text>

  <!-- ── USERS  x=1180..1398, y=348..462 ── -->
  <rect x="1180" y="348" width="218" height="114" rx="8" fill="#d3869b06" stroke="#d3869b" stroke-width="0.8"/>
  <rect x="1183" y="355" rx="2" width="3" height="100" fill="#d3869b"/>
  <text x="1198" y="370" fill="#d3869b" font-weight="bold" font-size="12">users</text>
  <line x1="1190" y1="380" x2="1388" y2="380" stroke="#d3869b" stroke-width="0.3" opacity="0.35"/>
  <text x="1198" y="398" fill="#b16286" opacity="0.5" font-size="7">●</text>
  <text x="1210" y="398" fill="#bdae93" font-size="10">./daskladas/</text>
  <line x1="1190" y1="412" x2="1388" y2="412" stroke="#d3869b" stroke-width="0.2" opacity="0.2"/>
  <text x="1198" y="430" fill="#665c54" font-size="8">zsh, wheel, input, usbguard</text>
  <text x="1198" y="444" fill="#665c54" font-size="8">docker, libvirtd, networkmanager</text>

  <!-- ── SCRIPTS  x=1180..1398, y=480..592 ── -->
  <line x1="1289" y1="462" x2="1289" y2="478" stroke="#928374" stroke-width="0.6" stroke-dasharray="3 3"/>
  <rect x="1180" y="482" width="218" height="110" rx="8" fill="#92837406" stroke="#928374" stroke-width="0.6" stroke-dasharray="5 3"/>
  <rect x="1183" y="489" rx="2" width="3" height="96" fill="#928374" opacity="0.4"/>
  <text x="1198" y="504" fill="#928374" font-weight="bold" font-size="12">scripts</text>
  <line x1="1190" y1="514" x2="1388" y2="514" stroke="#928374" stroke-width="0.2" opacity="0.25"/>
  <text x="1198" y="532" fill="#665c54" opacity="0.5" font-size="7">●</text>
  <text x="1210" y="532" fill="#a89984" font-size="10">wallpaper-manager.sh</text>
  <text x="1198" y="550" fill="#665c54" opacity="0.5" font-size="7">●</text>
  <text x="1210" y="550" fill="#a89984" font-size="10">ghibli-wallpaper.sh</text>
  <text x="1198" y="568" fill="#665c54" opacity="0.5" font-size="7">●</text>
  <text x="1210" y="568" fill="#a89984" font-size="10">rofi-modes/</text>

  <!-- ══════════════════════════════════════════════ -->
  <!--  MODULES BAR  x=290..1160, y=348..384         -->
  <!-- ══════════════════════════════════════════════ -->
  <rect x="290" y="348" width="870" height="36" rx="8" fill="#8ec07c0a" stroke="#8ec07c" stroke-width="1"/>
  <rect x="293" y="355" rx="2" width="3" height="22" fill="#8ec07c"/>
  <text x="308" y="372" fill="#8ec07c" font-weight="bold" font-size="13">modules</text>
  <rect x="1106" y="354" rx="4" width="44" height="18" fill="#8ec07c14"/>
  <text x="1128" y="367" text-anchor="middle" fill="#8ec07c" font-size="9">44 files</text>

  <!-- Branch lines from modules bar to columns -->
  <!-- 6 columns: each 136w, gap 8, total=6*136+5*8=856, offset=(870-856)/2=7 → start at x=297 -->
  <line x1="365" y1="384" x2="365" y2="406" stroke="#458588" stroke-width="0.8" marker-end="url(#a)"/>
  <line x1="509" y1="384" x2="509" y2="406" stroke="#689d6a" stroke-width="0.8" marker-end="url(#a)"/>
  <line x1="653" y1="384" x2="653" y2="406" stroke="#d79921" stroke-width="0.8" marker-end="url(#a)"/>
  <line x1="797" y1="384" x2="797" y2="406" stroke="#d3869b" stroke-width="0.8" marker-end="url(#a)"/>
  <line x1="941" y1="384" x2="941" y2="406" stroke="#d65d0e" stroke-width="0.8" marker-end="url(#a)"/>
  <line x1="1085" y1="384" x2="1085" y2="406" stroke="#cc241d" stroke-width="0.8" marker-end="url(#a)"/>

  <!-- ── COL 1: CORE  x=297..433, y=410 ── -->
  <rect x="297" y="410" width="136" height="130" rx="7" fill="#45858806" stroke="#458588" stroke-width="0.7"/>
  <rect x="300" y="416" rx="2" width="3" height="118" fill="#458588"/>
  <text x="314" y="430" fill="#83a598" font-weight="bold" font-size="11">core</text>
  <rect x="399" y="419" rx="3" width="24" height="14" fill="#45858814"/>
  <text x="411" y="430" text-anchor="middle" fill="#83a598" font-size="9">3</text>
  <line x1="307" y1="438" x2="425" y2="438" stroke="#458588" stroke-width="0.25" opacity="0.3"/>
  <text x="314" y="456" fill="#458588" opacity="0.45" font-size="7">●</text>
  <text x="325" y="456" fill="#bdae93" font-size="10">boot.nix</text>
  <text x="314" y="474" fill="#458588" opacity="0.45" font-size="7">●</text>
  <text x="325" y="474" fill="#bdae93" font-size="10">nix.nix</text>
  <text x="314" y="492" fill="#458588" opacity="0.45" font-size="7">●</text>
  <text x="325" y="492" fill="#bdae93" font-size="10">services.nix</text>
  <line x1="307" y1="502" x2="425" y2="502" stroke="#458588" stroke-width="0.15" opacity="0.2"/>
  <text x="314" y="518" fill="#665c54" font-size="8">systemd-boot, plymouth</text>
  <text x="314" y="532" fill="#665c54" font-size="8">GC, btrfs maintenance</text>

  <!-- gaming.nix (optional, below core) -->
  <line x1="365" y1="540" x2="365" y2="554" stroke="#928374" stroke-width="0.5" stroke-dasharray="3 3"/>
  <rect x="312" y="558" width="106" height="28" rx="5" fill="#92837406" stroke="#928374" stroke-width="0.5" stroke-dasharray="4 3"/>
  <text x="365" y="577" text-anchor="middle" fill="#928374" font-size="9">gaming.nix</text>
  <text x="365" y="598" text-anchor="middle" fill="#665c54" font-size="8">disabled</text>

  <!-- ── COL 2: DESKTOP  x=441..577, y=410 ── -->
  <rect x="441" y="410" width="136" height="204" rx="7" fill="#689d6a06" stroke="#689d6a" stroke-width="0.7"/>
  <rect x="444" y="416" rx="2" width="3" height="192" fill="#689d6a"/>
  <text x="458" y="430" fill="#8ec07c" font-weight="bold" font-size="11">desktop</text>
  <rect x="543" y="419" rx="3" width="24" height="14" fill="#689d6a14"/>
  <text x="555" y="430" text-anchor="middle" fill="#8ec07c" font-size="9">6</text>
  <line x1="451" y1="438" x2="569" y2="438" stroke="#689d6a" stroke-width="0.25" opacity="0.3"/>
  <text x="458" y="456" fill="#689d6a" opacity="0.45" font-size="7">●</text>
  <text x="469" y="456" fill="#bdae93" font-size="10">hyprland.nix</text>
  <text x="458" y="474" fill="#689d6a" opacity="0.45" font-size="7">●</text>
  <text x="469" y="474" fill="#bdae93" font-size="10">hyprpanel.nix</text>
  <text x="458" y="492" fill="#689d6a" opacity="0.45" font-size="7">●</text>
  <text x="469" y="492" fill="#bdae93" font-size="10">greetd.nix</text>
  <text x="458" y="510" fill="#689d6a" opacity="0.45" font-size="7">●</text>
  <text x="469" y="510" fill="#bdae93" font-size="10">rofi.nix</text>
  <text x="458" y="528" fill="#689d6a" opacity="0.45" font-size="7">●</text>
  <text x="469" y="528" fill="#bdae93" font-size="10">styling.nix</text>
  <text x="458" y="546" fill="#689d6a" opacity="0.45" font-size="7">●</text>
  <text x="469" y="546" fill="#bdae93" font-size="10">xdg.nix</text>
  <line x1="451" y1="556" x2="569" y2="556" stroke="#689d6a" stroke-width="0.15" opacity="0.2"/>
  <text x="458" y="572" fill="#665c54" font-size="8">hyprland + UWSM</text>
  <text x="458" y="586" fill="#665c54" font-size="8">gruvbox via stylix</text>
  <text x="458" y="600" fill="#665c54" font-size="8">hyprpanel bar</text>

  <!-- ── COL 3: APPS  x=585..721, y=410 ── -->
  <rect x="585" y="410" width="136" height="308" rx="7" fill="#d7992106" stroke="#d79921" stroke-width="0.7"/>
  <rect x="588" y="416" rx="2" width="3" height="296" fill="#d79921"/>
  <text x="602" y="430" fill="#fabd2f" font-weight="bold" font-size="11">apps</text>
  <rect x="687" y="419" rx="3" width="24" height="14" fill="#d7992114"/>
  <text x="699" y="430" text-anchor="middle" fill="#fabd2f" font-size="9">10</text>
  <line x1="595" y1="438" x2="713" y2="438" stroke="#d79921" stroke-width="0.25" opacity="0.3"/>
  <text x="602" y="456" fill="#d79921" opacity="0.45" font-size="7">●</text>
  <text x="613" y="456" fill="#bdae93" font-size="10">browsing.nix</text>
  <text x="602" y="474" fill="#d79921" opacity="0.45" font-size="7">●</text>
  <text x="613" y="474" fill="#bdae93" font-size="10">communication.nix</text>
  <text x="602" y="492" fill="#d79921" opacity="0.45" font-size="7">●</text>
  <text x="613" y="492" fill="#bdae93" font-size="10">office.nix</text>
  <text x="602" y="510" fill="#d79921" opacity="0.45" font-size="7">●</text>
  <text x="613" y="510" fill="#bdae93" font-size="10">creative.nix</text>
  <text x="602" y="528" fill="#d79921" opacity="0.45" font-size="7">●</text>
  <text x="613" y="528" fill="#bdae93" font-size="10">entertainment.nix</text>
  <text x="602" y="546" fill="#d79921" opacity="0.45" font-size="7">●</text>
  <text x="613" y="546" fill="#bdae93" font-size="10">media.nix</text>
  <text x="602" y="564" fill="#d79921" opacity="0.45" font-size="7">●</text>
  <text x="613" y="564" fill="#bdae93" font-size="10">filemanager.nix</text>
  <text x="602" y="582" fill="#d79921" opacity="0.45" font-size="7">●</text>
  <text x="613" y="582" fill="#bdae93" font-size="10">terminals.nix</text>
  <text x="602" y="600" fill="#d79921" opacity="0.45" font-size="7">●</text>
  <text x="613" y="600" fill="#bdae93" font-size="10">terminal-fun.nix</text>
  <text x="602" y="618" fill="#d79921" opacity="0.45" font-size="7">●</text>
  <text x="613" y="618" fill="#bdae93" font-size="10">cybersec.nix</text>
  <line x1="595" y1="628" x2="713" y2="628" stroke="#d79921" stroke-width="0.15" opacity="0.2"/>
  <text x="602" y="644" fill="#665c54" font-size="8">chromium, signal</text>
  <text x="602" y="658" fill="#665c54" font-size="8">discord, spotify</text>
  <text x="602" y="672" fill="#665c54" font-size="8">OBS, 150+ pentools</text>
  <text x="602" y="686" fill="#665c54" font-size="8">libreoffice, VLC</text>
  <text x="602" y="700" fill="#665c54" font-size="8">firejailed browsers</text>

  <!-- ── COL 4: DEV  x=729..865, y=410 ── -->
  <rect x="729" y="410" width="136" height="168" rx="7" fill="#d3869b06" stroke="#d3869b" stroke-width="0.7"/>
  <rect x="732" y="416" rx="2" width="3" height="156" fill="#d3869b"/>
  <text x="746" y="430" fill="#d3869b" font-weight="bold" font-size="11">dev</text>
  <rect x="831" y="419" rx="3" width="24" height="14" fill="#d3869b14"/>
  <text x="843" y="430" text-anchor="middle" fill="#d3869b" font-size="9">4</text>
  <line x1="739" y1="438" x2="857" y2="438" stroke="#d3869b" stroke-width="0.25" opacity="0.3"/>
  <text x="746" y="456" fill="#d3869b" opacity="0.45" font-size="7">●</text>
  <text x="757" y="456" fill="#bdae93" font-size="10">tools.nix</text>
  <text x="746" y="474" fill="#d3869b" opacity="0.45" font-size="7">●</text>
  <text x="757" y="474" fill="#bdae93" font-size="10">virtualization.nix</text>
  <text x="746" y="492" fill="#d3869b" opacity="0.45" font-size="7">●</text>
  <text x="757" y="492" fill="#bdae93" font-size="10">shell.nix</text>
  <text x="746" y="510" fill="#d3869b" opacity="0.45" font-size="7">●</text>
  <text x="757" y="510" fill="#bdae93" font-size="10">commonAliases.nix</text>
  <line x1="739" y1="520" x2="857" y2="520" stroke="#d3869b" stroke-width="0.15" opacity="0.2"/>
  <text x="746" y="536" fill="#665c54" font-size="8">vscodium, neovim</text>
  <text x="746" y="550" fill="#665c54" font-size="8">docker, QEMU</text>
  <text x="746" y="564" fill="#665c54" font-size="8">zsh + p10k, fastfetch</text>

  <!-- ── COL 5: HARDWARE  x=873..1009, y=410 ── -->
  <rect x="873" y="410" width="136" height="204" rx="7" fill="#d6510406" stroke="#d65d0e" stroke-width="0.7"/>
  <rect x="876" y="416" rx="2" width="3" height="192" fill="#d65d0e"/>
  <text x="890" y="430" fill="#fe8019" font-weight="bold" font-size="11">hardware</text>
  <rect x="975" y="419" rx="3" width="24" height="14" fill="#d6510414"/>
  <text x="987" y="430" text-anchor="middle" fill="#fe8019" font-size="9">6</text>
  <line x1="883" y1="438" x2="1001" y2="438" stroke="#d65d0e" stroke-width="0.25" opacity="0.3"/>
  <text x="890" y="456" fill="#d65d0e" opacity="0.45" font-size="7">●</text>
  <text x="901" y="456" fill="#bdae93" font-size="10">audio.nix</text>
  <text x="890" y="474" fill="#d65d0e" opacity="0.45" font-size="7">●</text>
  <text x="901" y="474" fill="#bdae93" font-size="10">bluetooth.nix</text>
  <text x="890" y="492" fill="#d65d0e" opacity="0.45" font-size="7">●</text>
  <text x="901" y="492" fill="#bdae93" font-size="10">gpu.nix</text>
  <text x="890" y="510" fill="#d65d0e" opacity="0.45" font-size="7">●</text>
  <text x="901" y="510" fill="#bdae93" font-size="10">network.nix</text>
  <text x="890" y="528" fill="#d65d0e" opacity="0.45" font-size="7">●</text>
  <text x="901" y="528" fill="#bdae93" font-size="10">peripherals.nix</text>
  <text x="890" y="546" fill="#d65d0e" opacity="0.45" font-size="7">●</text>
  <text x="901" y="546" fill="#bdae93" font-size="10">power.nix</text>
  <line x1="883" y1="556" x2="1001" y2="556" stroke="#d65d0e" stroke-width="0.15" opacity="0.2"/>
  <text x="890" y="572" fill="#665c54" font-size="8">pipewire, intel GPU</text>
  <text x="890" y="586" fill="#665c54" font-size="8">wireguard, tailscale</text>
  <text x="890" y="600" fill="#665c54" font-size="8">auto-cpufreq, AMD pstate</text>

  <!-- ── COL 6: SECURITY  x=1017..1153, y=410 ── -->
  <rect x="1017" y="410" width="136" height="240" rx="7" fill="#cc241d06" stroke="#cc241d" stroke-width="0.7"/>
  <rect x="1020" y="416" rx="2" width="3" height="228" fill="#cc241d"/>
  <text x="1034" y="430" fill="#fb4934" font-weight="bold" font-size="11">security</text>
  <rect x="1119" y="419" rx="3" width="24" height="14" fill="#cc241d14"/>
  <text x="1131" y="430" text-anchor="middle" fill="#fb4934" font-size="9">7</text>
  <line x1="1027" y1="438" x2="1145" y2="438" stroke="#cc241d" stroke-width="0.25" opacity="0.3"/>
  <text x="1034" y="456" fill="#cc241d" opacity="0.45" font-size="7">●</text>
  <text x="1045" y="456" fill="#bdae93" font-size="10">auth.nix</text>
  <text x="1034" y="474" fill="#cc241d" opacity="0.45" font-size="7">●</text>
  <text x="1045" y="474" fill="#bdae93" font-size="10">encryption.nix</text>
  <text x="1034" y="492" fill="#cc241d" opacity="0.45" font-size="7">●</text>
  <text x="1045" y="492" fill="#bdae93" font-size="10">firejail.nix</text>
  <text x="1034" y="510" fill="#cc241d" opacity="0.45" font-size="7">●</text>
  <text x="1045" y="510" fill="#bdae93" font-size="10">hardening.nix</text>
  <text x="1034" y="528" fill="#cc241d" opacity="0.45" font-size="7">●</text>
  <text x="1045" y="528" fill="#bdae93" font-size="10">usbguard.nix</text>
  <text x="1034" y="546" fill="#cc241d" opacity="0.45" font-size="7">●</text>
  <text x="1045" y="546" fill="#bdae93" font-size="10">clamav.nix</text>
  <text x="1034" y="564" fill="#cc241d" opacity="0.45" font-size="7">●</text>
  <text x="1045" y="564" fill="#bdae93" font-size="10">aide.nix</text>
  <line x1="1027" y1="574" x2="1145" y2="574" stroke="#cc241d" stroke-width="0.15" opacity="0.2"/>
  <text x="1034" y="590" fill="#665c54" font-size="8">firejail sandboxing</text>
  <text x="1034" y="604" fill="#665c54" font-size="8">USBGuard whitelisting</text>
  <text x="1034" y="618" fill="#665c54" font-size="8">kernel hardening, auditd</text>
  <text x="1034" y="632" fill="#665c54" font-size="8">ClamAV realtime, AIDE</text>

  <!-- ══════════════════════════════════════════════ -->
  <!--  LEGEND + STACK                               -->
  <!-- ══════════════════════════════════════════════ -->
  <line x1="42" y1="740" x2="1398" y2="740" stroke="#3c3836" stroke-width="0.6"/>

  <!-- Legend row -->
  <text x="56" y="770" fill="#a89984" font-weight="bold" font-size="10">LEGEND</text>

  <line x1="56" y1="790" x2="90" y2="790" stroke="#fb4934" stroke-width="1" marker-end="url(#a)"/>
  <text x="100" y="794" fill="#a89984" font-size="10">required</text>

  <line x1="186" y1="790" x2="220" y2="790" stroke="#8ec07c" stroke-width="1" marker-end="url(#a)"/>
  <text x="230" y="794" fill="#a89984" font-size="10">module</text>

  <line x1="308" y1="790" x2="342" y2="790" stroke="#928374" stroke-width="0.7" stroke-dasharray="4 3"/>
  <text x="352" y="794" fill="#a89984" font-size="10">optional</text>

  <rect x="430" y="782" width="36" height="16" rx="4" fill="#fabd2f0c" stroke="#fabd2f" stroke-width="0.5"/>
  <text x="478" y="794" fill="#a89984" font-size="10">specialArgs</text>

  <!-- Stack badges -->
  <text x="640" y="770" fill="#a89984" font-weight="bold" font-size="10">STACK</text>

  <rect x="640" y="780" rx="4" width="84" height="18" fill="#8ec07c10" stroke="#8ec07c" stroke-width="0.5"/>
  <text x="682" y="793" text-anchor="middle" fill="#8ec07c" font-size="9">Hyprland</text>

  <rect x="732" y="780" rx="4" width="96" height="18" fill="#fabd2f10" stroke="#fabd2f" stroke-width="0.5"/>
  <text x="780" y="793" text-anchor="middle" fill="#fabd2f" font-size="9">Gruvbox Dark</text>

  <rect x="836" y="780" rx="4" width="52" height="18" fill="#83a59810" stroke="#83a598" stroke-width="0.5"/>
  <text x="862" y="793" text-anchor="middle" fill="#83a598" font-size="9">Btrfs</text>

  <rect x="896" y="780" rx="4" width="66" height="18" fill="#d3869b10" stroke="#d3869b" stroke-width="0.5"/>
  <text x="929" y="793" text-anchor="middle" fill="#d3869b" font-size="9">Docker</text>

  <rect x="970" y="780" rx="4" width="58" height="18" fill="#fe801910" stroke="#fe8019" stroke-width="0.5"/>
  <text x="999" y="793" text-anchor="middle" fill="#fe8019" font-size="9">QEMU</text>

  <rect x="1036" y="780" rx="4" width="98" height="18" fill="#fb493410" stroke="#fb4934" stroke-width="0.5"/>
  <text x="1085" y="793" text-anchor="middle" fill="#fb4934" font-size="9">Security-first</text>

  <rect x="1142" y="780" rx="4" width="105" height="18" fill="#cc241d10" stroke="#cc241d" stroke-width="0.5"/>
  <text x="1195" y="793" text-anchor="middle" fill="#cc241d" font-size="9">150+ pentools</text>

  <rect x="1255" y="780" rx="4" width="78" height="18" fill="#d7992110" stroke="#d79921" stroke-width="0.5"/>
  <text x="1294" y="793" text-anchor="middle" fill="#d79921" font-size="9">Tailscale</text>

  <!-- Footer -->
  <text x="720" y="836" text-anchor="middle" fill="#504945" font-size="10">NixOS 26.05 · Flakes · Home Manager · x86_64-linux</text>
  <text x="720" y="856" text-anchor="middle" fill="#3c3836" font-size="9">github.com/daskladas/lapdots</text>

</svg>
