<svg xmlns="http://www.w3.org/2000/svg" viewBox="0 0 1440 820" font-family="'JetBrains Mono','Fira Code','Cascadia Code',monospace">
  <defs>
    <marker id="a" viewBox="0 0 10 10" refX="8" refY="5" markerWidth="6" markerHeight="6" orient="auto-start-reverse">
      <path d="M2 1L8 5L2 9" fill="none" stroke="context-stroke" stroke-width="1.5" stroke-linecap="round" stroke-linejoin="round"/>
    </marker>
    <pattern id="dots" width="24" height="24" patternUnits="userSpaceOnUse">
      <circle cx="12" cy="12" r="0.5" fill="#504945" opacity="0.35"/>
    </pattern>
    <linearGradient id="bar" x1="0" y1="0" x2="1" y2="0">
      <stop offset="0%" stop-color="#458588"/><stop offset="20%" stop-color="#689d6a"/>
      <stop offset="40%" stop-color="#d79921"/><stop offset="60%" stop-color="#cc241d"/>
      <stop offset="80%" stop-color="#b16286"/><stop offset="100%" stop-color="#d65d0e"/>
    </linearGradient>
  </defs>

  <!-- BG + grid + top bar -->
  <rect width="1440" height="820" rx="14" fill="#1d2021"/>
  <rect width="1440" height="820" rx="14" fill="url(#dots)"/>
  <rect width="1440" height="4" rx="2" fill="url(#bar)"/>

  <!-- Window dots -->
  <circle cx="30" cy="24" r="6" fill="#cc241d" opacity="0.9"/>
  <circle cx="50" cy="24" r="6" fill="#d79921" opacity="0.9"/>
  <circle cx="70" cy="24" r="6" fill="#689d6a" opacity="0.9"/>

  <!-- Title -->
  <text x="720" y="48" text-anchor="middle" fill="#ebdbb2" font-size="24" font-weight="bold">lapdots</text>
  <text x="720" y="68" text-anchor="middle" fill="#928374" font-size="12">ThinkPad T14 Gen 2a · NixOS Unstable · Flakes · Gruvbox Dark Hard</text>

  <!-- ══════════════════════════════════════════════ -->
  <!--  FLAKE INPUTS  y=86..156                      -->
  <!-- ══════════════════════════════════════════════ -->
  <rect x="56" y="86" width="1328" height="70" rx="10" fill="none" stroke="#504945" stroke-width="0.7" stroke-dasharray="6 3"/>
  <text x="720" y="100" text-anchor="middle" fill="#504945" font-size="9" font-weight="bold" letter-spacing="2">FLAKE INPUTS</text>

  <rect x="78" y="108" width="204" height="40" rx="7" fill="#45858810" stroke="#458588" stroke-width="0.8"/>
  <rect x="81" y="114" rx="2" width="3" height="28" fill="#458588"/>
  <text x="96" y="126" fill="#83a598" font-weight="bold" font-size="11">nixpkgs</text>
  <text x="96" y="142" fill="#665c54" font-size="9">nixos-unstable</text>

  <rect x="294" y="108" width="204" height="40" rx="7" fill="#689d6a10" stroke="#689d6a" stroke-width="0.8"/>
  <rect x="297" y="114" rx="2" width="3" height="28" fill="#689d6a"/>
  <text x="312" y="126" fill="#8ec07c" font-weight="bold" font-size="11">home-manager</text>
  <text x="312" y="142" fill="#665c54" font-size="9">nix-community</text>

  <rect x="510" y="108" width="204" height="40" rx="7" fill="#d7992110" stroke="#d79921" stroke-width="0.8"/>
  <rect x="513" y="114" rx="2" width="3" height="28" fill="#d79921"/>
  <text x="528" y="126" fill="#fabd2f" font-weight="bold" font-size="11">agenix</text>
  <text x="528" y="142" fill="#665c54" font-size="9">ryantm/agenix</text>

  <rect x="726" y="108" width="204" height="40" rx="7" fill="#cc241d10" stroke="#cc241d" stroke-width="0.8"/>
  <rect x="729" y="114" rx="2" width="3" height="28" fill="#cc241d"/>
  <text x="744" y="126" fill="#fb4934" font-weight="bold" font-size="11">lanzaboote</text>
  <text x="744" y="142" fill="#665c54" font-size="9">v0.4.2 · secure boot</text>

  <rect x="942" y="108" width="204" height="40" rx="7" fill="#b1628610" stroke="#b16286" stroke-width="0.8"/>
  <rect x="945" y="114" rx="2" width="3" height="28" fill="#b16286"/>
  <text x="960" y="126" fill="#d3869b" font-weight="bold" font-size="11">spicetify-nix</text>
  <text x="960" y="142" fill="#665c54" font-size="9">Gerg-L</text>

  <rect x="1158" y="108" width="204" height="40" rx="7" fill="#d6510410" stroke="#d65d0e" stroke-width="0.8"/>
  <rect x="1161" y="114" rx="2" width="3" height="28" fill="#d65d0e"/>
  <text x="1176" y="126" fill="#fe8019" font-weight="bold" font-size="11">stylix</text>
  <text x="1176" y="142" fill="#665c54" font-size="9">danth/stylix</text>

  <!-- ══════════════════════════════════════════════ -->
  <!--  FLAKE.NIX                                    -->
  <!-- ══════════════════════════════════════════════ -->
  <line x1="720" y1="156" x2="720" y2="172" stroke="#928374" stroke-width="1" marker-end="url(#a)"/>

  <rect x="550" y="176" width="340" height="48" rx="8" fill="#fabd2f0c" stroke="#fabd2f" stroke-width="1.2"/>
  <rect x="553" y="183" rx="2" width="3" height="34" fill="#fabd2f"/>
  <text x="568" y="199" fill="#fabd2f" font-weight="bold" font-size="14">flake.nix</text>
  <text x="568" y="216" fill="#928374" font-size="10">specialArgs = { username, inputs }</text>

  <!-- ══════════════════════════════════════════════ -->
  <!--  COCKPIT (configuration.nix)                  -->
  <!-- ══════════════════════════════════════════════ -->
  <line x1="720" y1="224" x2="720" y2="240" stroke="#fabd2f" stroke-width="0.8" opacity="0.5" marker-end="url(#a)"/>

  <rect x="440" y="244" width="560" height="64" rx="10" fill="#ebdbb20c" stroke="#ebdbb2" stroke-width="1.5"/>
  <rect x="443" y="251" rx="2" width="4" height="50" fill="#ebdbb2"/>
  <text x="460" y="269" fill="#ebdbb2" font-weight="bold" font-size="15">configuration.nix</text>
  <rect x="640" y="256" rx="5" width="68" height="18" fill="#fabd2f18" stroke="#fabd2f" stroke-width="0.6"/>
  <text x="674" y="269" text-anchor="middle" fill="#fabd2f" font-size="9">COCKPIT</text>
  <text x="460" y="296" fill="#928374" font-size="10">Central control panel — every feature is a true/false toggle</text>

  <!-- ══════════════════════════════════════════════ -->
  <!--  TREE BRANCHES                                -->
  <!-- ══════════════════════════════════════════════ -->
  <path d="M550,308 C550,325 165,340 165,356" stroke="#fb4934" stroke-width="1" fill="none" opacity="0.7" marker-end="url(#a)"/>
  <path d="M720,308 C720,325 720,340 720,356" stroke="#8ec07c" stroke-width="1" fill="none" opacity="0.7" marker-end="url(#a)"/>
  <path d="M890,308 C890,325 1295,340 1295,356" stroke="#d3869b" stroke-width="1" fill="none" opacity="0.7" marker-end="url(#a)"/>

  <!-- ── HOST  x=42..272 ── -->
  <rect x="42" y="360" width="230" height="140" rx="8" fill="#fb493406" stroke="#fb4934" stroke-width="0.8"/>
  <rect x="45" y="367" rx="2" width="3" height="126" fill="#fb4934"/>
  <text x="60" y="382" fill="#fb4934" font-weight="bold" font-size="12">host</text>
  <line x1="52" y1="392" x2="262" y2="392" stroke="#fb4934" stroke-width="0.3" opacity="0.35"/>
  <text x="60" y="410" fill="#cc241d" opacity="0.5" font-size="7">●</text>
  <text x="72" y="410" fill="#bdae93" font-size="10">hardware-configuration.nix</text>
  <text x="60" y="428" fill="#cc241d" opacity="0.5" font-size="7">●</text>
  <text x="72" y="428" fill="#bdae93" font-size="10">hardware.nix</text>
  <text x="60" y="446" fill="#cc241d" opacity="0.5" font-size="7">●</text>
  <text x="72" y="446" fill="#bdae93" font-size="10">locale.nix</text>
  <line x1="52" y1="458" x2="262" y2="458" stroke="#fb4934" stroke-width="0.15" opacity="0.2"/>
  <text x="60" y="476" fill="#665c54" font-size="8">kernel, AMD Ryzen, btrfs</text>
  <text x="60" y="490" fill="#665c54" font-size="8">wayland vars, console keymap</text>

  <!-- ── USERS  x=1180..1398 ── -->
  <rect x="1180" y="360" width="218" height="102" rx="8" fill="#d3869b06" stroke="#d3869b" stroke-width="0.8"/>
  <rect x="1183" y="367" rx="2" width="3" height="88" fill="#d3869b"/>
  <text x="1198" y="382" fill="#d3869b" font-weight="bold" font-size="12">users</text>
  <line x1="1190" y1="392" x2="1388" y2="392" stroke="#d3869b" stroke-width="0.3" opacity="0.35"/>
  <text x="1198" y="410" fill="#b16286" opacity="0.5" font-size="7">●</text>
  <text x="1210" y="410" fill="#bdae93" font-size="10">./daskladas/</text>
  <line x1="1190" y1="424" x2="1388" y2="424" stroke="#d3869b" stroke-width="0.15" opacity="0.2"/>
  <text x="1198" y="442" fill="#665c54" font-size="8">zsh, wheel, input, usbguard</text>

  <!-- ── SCRIPTS  x=1180..1398 ── -->
  <line x1="1289" y1="462" x2="1289" y2="478" stroke="#928374" stroke-width="0.6" stroke-dasharray="3 3"/>
  <rect x="1180" y="482" width="218" height="98" rx="8" fill="#92837406" stroke="#928374" stroke-width="0.6" stroke-dasharray="5 3"/>
  <rect x="1183" y="489" rx="2" width="3" height="84" fill="#928374" opacity="0.4"/>
  <text x="1198" y="504" fill="#928374" font-weight="bold" font-size="12">scripts</text>
  <line x1="1190" y1="514" x2="1388" y2="514" stroke="#928374" stroke-width="0.2" opacity="0.25"/>
  <text x="1198" y="532" fill="#665c54" opacity="0.5" font-size="7">●</text>
  <text x="1210" y="532" fill="#a89984" font-size="10">wallpaper-manager.sh</text>
  <text x="1198" y="550" fill="#665c54" opacity="0.5" font-size="7">●</text>
  <text x="1210" y="550" fill="#a89984" font-size="10">ghibli-wallpaper.sh</text>
  <text x="1198" y="568" fill="#665c54" opacity="0.5" font-size="7">●</text>
  <text x="1210" y="568" fill="#a89984" font-size="10">rofi-modes/</text>

  <!-- ══════════════════════════════════════════════ -->
  <!--  MODULES BAR                                  -->
  <!-- ══════════════════════════════════════════════ -->
  <rect x="290" y="360" width="870" height="36" rx="8" fill="#8ec07c0a" stroke="#8ec07c" stroke-width="1"/>
  <rect x="293" y="367" rx="2" width="3" height="22" fill="#8ec07c"/>
  <text x="308" y="384" fill="#8ec07c" font-weight="bold" font-size="13">modules</text>

  <!-- 6 branch lines -->
  <!-- cols: core=297-417(120), desktop=425-557(132), apps=565-705(140), dev=713-861(148), hw=869-997(128), sec=1005-1153(148) -->
  <line x1="358" y1="396" x2="358" y2="418" stroke="#458588" stroke-width="0.8" marker-end="url(#a)"/>
  <line x1="491" y1="396" x2="491" y2="418" stroke="#689d6a" stroke-width="0.8" marker-end="url(#a)"/>
  <line x1="635" y1="396" x2="635" y2="418" stroke="#d79921" stroke-width="0.8" marker-end="url(#a)"/>
  <line x1="787" y1="396" x2="787" y2="418" stroke="#d3869b" stroke-width="0.8" marker-end="url(#a)"/>
  <line x1="933" y1="396" x2="933" y2="418" stroke="#d65d0e" stroke-width="0.8" marker-end="url(#a)"/>
  <line x1="1079" y1="396" x2="1079" y2="418" stroke="#cc241d" stroke-width="0.8" marker-end="url(#a)"/>

  <!-- ── CORE  x=297..417, w=120 ── -->
  <rect x="297" y="422" width="120" height="130" rx="7" fill="#45858806" stroke="#458588" stroke-width="0.7"/>
  <rect x="300" y="428" rx="2" width="3" height="118" fill="#458588"/>
  <text x="314" y="442" fill="#83a598" font-weight="bold" font-size="11">core</text>
  <line x1="307" y1="450" x2="409" y2="450" stroke="#458588" stroke-width="0.25" opacity="0.3"/>
  <text x="314" y="468" fill="#458588" opacity="0.45" font-size="7">●</text>
  <text x="325" y="468" fill="#bdae93" font-size="10">boot.nix</text>
  <text x="314" y="486" fill="#458588" opacity="0.45" font-size="7">●</text>
  <text x="325" y="486" fill="#bdae93" font-size="10">nix.nix</text>
  <text x="314" y="504" fill="#458588" opacity="0.45" font-size="7">●</text>
  <text x="325" y="504" fill="#bdae93" font-size="10">services.nix</text>
  <line x1="307" y1="516" x2="409" y2="516" stroke="#458588" stroke-width="0.15" opacity="0.2"/>
  <text x="314" y="534" fill="#665c54" font-size="8">always on</text>
  <text x="314" y="546" fill="#665c54" font-size="8">systemd-boot</text>

  <!-- gaming below core (dashed, no overlap) -->
  <line x1="358" y1="552" x2="358" y2="568" stroke="#928374" stroke-width="0.6" stroke-dasharray="3 3"/>
  <rect x="297" y="572" width="120" height="42" rx="5" fill="#92837406" stroke="#928374" stroke-width="0.6" stroke-dasharray="4 3"/>
  <text x="314" y="590" fill="#928374" font-size="10">gaming</text>
  <rect x="370" y="580" rx="3" width="12" height="12" fill="#689d6a30" stroke="#689d6a" stroke-width="0.5"/>
  <text x="376" y="590" text-anchor="middle" fill="#689d6a" font-size="8">◉</text>
  <text x="314" y="606" fill="#665c54" font-size="8">steam · foss</text>

  <!-- ── DESKTOP  x=425..557, w=132 ── -->
  <rect x="425" y="422" width="132" height="200" rx="7" fill="#689d6a06" stroke="#689d6a" stroke-width="0.7"/>
  <rect x="428" y="428" rx="2" width="3" height="188" fill="#689d6a"/>
  <text x="442" y="442" fill="#8ec07c" font-weight="bold" font-size="11">desktop</text>
  <line x1="435" y1="450" x2="549" y2="450" stroke="#689d6a" stroke-width="0.25" opacity="0.3"/>
  <text x="442" y="468" fill="#689d6a" opacity="0.45" font-size="7">●</text>
  <text x="453" y="468" fill="#bdae93" font-size="10">hyprland.nix</text>
  <text x="442" y="486" fill="#689d6a" opacity="0.45" font-size="7">●</text>
  <text x="453" y="486" fill="#bdae93" font-size="10">hyprpanel.nix</text>
  <text x="442" y="504" fill="#689d6a" opacity="0.45" font-size="7">●</text>
  <text x="453" y="504" fill="#bdae93" font-size="10">greetd.nix</text>
  <text x="442" y="522" fill="#689d6a" opacity="0.45" font-size="7">●</text>
  <text x="453" y="522" fill="#bdae93" font-size="10">rofi.nix</text>
  <text x="442" y="540" fill="#689d6a" opacity="0.45" font-size="7">●</text>
  <text x="453" y="540" fill="#bdae93" font-size="10">styling.nix</text>
  <text x="442" y="558" fill="#689d6a" opacity="0.45" font-size="7">●</text>
  <text x="453" y="558" fill="#bdae93" font-size="10">xdg.nix</text>
  <line x1="435" y1="568" x2="549" y2="568" stroke="#689d6a" stroke-width="0.15" opacity="0.2"/>
  <text x="442" y="586" fill="#665c54" font-size="8">hyprland + UWSM</text>
  <text x="442" y="600" fill="#665c54" font-size="8">gruvbox via stylix</text>
  <text x="442" y="614" fill="#665c54" font-size="8">always on</text>

  <!-- ── APPS  x=565..705, w=140 ── -->
  <rect x="565" y="422" width="140" height="300" rx="7" fill="#d7992106" stroke="#d79921" stroke-width="0.7"/>
  <rect x="568" y="428" rx="2" width="3" height="288" fill="#d79921"/>
  <text x="582" y="442" fill="#fabd2f" font-weight="bold" font-size="11">apps</text>
  <rect x="662" y="432" rx="3" width="12" height="12" fill="#689d6a30" stroke="#689d6a" stroke-width="0.5"/>
  <text x="668" y="442" text-anchor="middle" fill="#689d6a" font-size="8">◉</text>
  <line x1="575" y1="450" x2="697" y2="450" stroke="#d79921" stroke-width="0.25" opacity="0.3"/>
  <text x="582" y="466" fill="#d79921" opacity="0.45" font-size="7">◉</text>
  <text x="593" y="466" fill="#bdae93" font-size="9">browsing</text>
  <text x="582" y="482" fill="#d79921" opacity="0.45" font-size="7">◉</text>
  <text x="593" y="482" fill="#bdae93" font-size="9">communication</text>
  <text x="582" y="498" fill="#d79921" opacity="0.45" font-size="7">◉</text>
  <text x="593" y="498" fill="#bdae93" font-size="9">creative</text>
  <text x="582" y="514" fill="#d79921" opacity="0.45" font-size="7">◉</text>
  <text x="593" y="514" fill="#bdae93" font-size="9">entertainment</text>
  <text x="582" y="530" fill="#d79921" opacity="0.45" font-size="7">◉</text>
  <text x="593" y="530" fill="#bdae93" font-size="9">filemanager</text>
  <text x="582" y="546" fill="#d79921" opacity="0.45" font-size="7">◉</text>
  <text x="593" y="546" fill="#bdae93" font-size="9">media</text>
  <text x="582" y="562" fill="#d79921" opacity="0.45" font-size="7">◉</text>
  <text x="593" y="562" fill="#bdae93" font-size="9">office</text>
  <text x="582" y="578" fill="#d79921" opacity="0.45" font-size="7">◉</text>
  <text x="593" y="578" fill="#bdae93" font-size="9">terminals</text>
  <text x="582" y="594" fill="#d79921" opacity="0.45" font-size="7">◉</text>
  <text x="593" y="594" fill="#bdae93" font-size="9">terminal-fun</text>
  <line x1="575" y1="606" x2="697" y2="606" stroke="#d79921" stroke-width="0.25" opacity="0.2"/>
  <!-- cybersec sub-section -->
  <text x="582" y="622" fill="#fabd2f" font-weight="bold" font-size="9">cybersec</text>
  <rect x="640" y="612" rx="3" width="12" height="12" fill="#689d6a30" stroke="#689d6a" stroke-width="0.5"/>
  <text x="646" y="622" text-anchor="middle" fill="#689d6a" font-size="8">◉</text>
  <text x="582" y="638" fill="#665c54" font-size="7">18 sub-toggles:</text>
  <text x="582" y="652" fill="#665c54" font-size="7">recon · web · osint</text>
  <text x="582" y="664" fill="#665c54" font-size="7">wireless · forensics</text>
  <text x="582" y="676" fill="#665c54" font-size="7">exploitation · reversing</text>
  <text x="582" y="688" fill="#665c54" font-size="7">passwords · privesc ...</text>
  <line x1="575" y1="698" x2="697" y2="698" stroke="#d79921" stroke-width="0.15" opacity="0.2"/>
  <text x="582" y="714" fill="#504945" font-size="8">150+ tools total</text>

  <!-- ── DEV  x=713..861, w=148 ── -->
  <rect x="713" y="422" width="148" height="158" rx="7" fill="#d3869b06" stroke="#d3869b" stroke-width="0.7"/>
  <rect x="716" y="428" rx="2" width="3" height="146" fill="#d3869b"/>
  <text x="730" y="442" fill="#d3869b" font-weight="bold" font-size="11">dev</text>
  <rect x="808" y="432" rx="3" width="12" height="12" fill="#689d6a30" stroke="#689d6a" stroke-width="0.5"/>
  <text x="814" y="442" text-anchor="middle" fill="#689d6a" font-size="8">◉</text>
  <line x1="723" y1="450" x2="853" y2="450" stroke="#d3869b" stroke-width="0.25" opacity="0.3"/>
  <text x="730" y="468" fill="#d3869b" opacity="0.45" font-size="7">◉</text>
  <text x="741" y="468" fill="#bdae93" font-size="10">tools.nix</text>
  <text x="730" y="486" fill="#d3869b" opacity="0.45" font-size="7">◉</text>
  <text x="741" y="486" fill="#bdae93" font-size="10">virtualization.nix</text>
  <text x="730" y="504" fill="#d3869b" opacity="0.45" font-size="7">●</text>
  <text x="741" y="504" fill="#bdae93" font-size="10">shell.nix</text>
  <text x="730" y="522" fill="#d3869b" opacity="0.45" font-size="7">●</text>
  <text x="741" y="522" fill="#bdae93" font-size="10">commonAliases.nix</text>
  <line x1="723" y1="534" x2="853" y2="534" stroke="#d3869b" stroke-width="0.15" opacity="0.2"/>
  <text x="730" y="552" fill="#665c54" font-size="8">vscodium, neovim</text>
  <text x="730" y="566" fill="#665c54" font-size="8">docker, QEMU</text>

  <!-- ── HARDWARE  x=869..997, w=128 ── -->
  <rect x="869" y="422" width="128" height="200" rx="7" fill="#d6510406" stroke="#d65d0e" stroke-width="0.7"/>
  <rect x="872" y="428" rx="2" width="3" height="188" fill="#d65d0e"/>
  <text x="886" y="442" fill="#fe8019" font-weight="bold" font-size="11">hardware</text>
  <line x1="879" y1="450" x2="989" y2="450" stroke="#d65d0e" stroke-width="0.25" opacity="0.3"/>
  <text x="886" y="468" fill="#d65d0e" opacity="0.45" font-size="7">●</text>
  <text x="897" y="468" fill="#bdae93" font-size="10">audio.nix</text>
  <text x="886" y="486" fill="#d65d0e" opacity="0.45" font-size="7">◉</text>
  <text x="897" y="486" fill="#bdae93" font-size="10">bluetooth.nix</text>
  <text x="886" y="504" fill="#d65d0e" opacity="0.45" font-size="7">●</text>
  <text x="897" y="504" fill="#bdae93" font-size="10">gpu.nix</text>
  <text x="886" y="522" fill="#d65d0e" opacity="0.45" font-size="7">●</text>
  <text x="897" y="522" fill="#bdae93" font-size="10">network.nix</text>
  <text x="886" y="540" fill="#d65d0e" opacity="0.45" font-size="7">●</text>
  <text x="897" y="540" fill="#bdae93" font-size="10">peripherals.nix</text>
  <text x="886" y="558" fill="#d65d0e" opacity="0.45" font-size="7">●</text>
  <text x="897" y="558" fill="#bdae93" font-size="10">power.nix</text>
  <line x1="879" y1="568" x2="989" y2="568" stroke="#d65d0e" stroke-width="0.15" opacity="0.2"/>
  <text x="886" y="586" fill="#665c54" font-size="8">pipewire, intel GPU</text>
  <text x="886" y="600" fill="#665c54" font-size="8">wireguard, tailscale</text>
  <text x="886" y="614" fill="#665c54" font-size="8">auto-cpufreq</text>

  <!-- ── SECURITY  x=1005..1153, w=148 ── -->
  <rect x="1005" y="422" width="148" height="230" rx="7" fill="#cc241d06" stroke="#cc241d" stroke-width="0.7"/>
  <rect x="1008" y="428" rx="2" width="3" height="218" fill="#cc241d"/>
  <text x="1022" y="442" fill="#fb4934" font-weight="bold" font-size="11">security</text>
  <rect x="1108" y="432" rx="3" width="12" height="12" fill="#689d6a30" stroke="#689d6a" stroke-width="0.5"/>
  <text x="1114" y="442" text-anchor="middle" fill="#689d6a" font-size="8">◉</text>
  <line x1="1015" y1="450" x2="1145" y2="450" stroke="#cc241d" stroke-width="0.25" opacity="0.3"/>
  <text x="1022" y="468" fill="#cc241d" opacity="0.45" font-size="7">●</text>
  <text x="1033" y="468" fill="#bdae93" font-size="10">auth.nix</text>
  <text x="1022" y="486" fill="#cc241d" opacity="0.45" font-size="7">●</text>
  <text x="1033" y="486" fill="#bdae93" font-size="10">encryption.nix</text>
  <text x="1022" y="504" fill="#cc241d" opacity="0.45" font-size="7">◉</text>
  <text x="1033" y="504" fill="#bdae93" font-size="10">firejail.nix</text>
  <text x="1022" y="522" fill="#cc241d" opacity="0.45" font-size="7">◉</text>
  <text x="1033" y="522" fill="#bdae93" font-size="10">hardening.nix</text>
  <text x="1022" y="540" fill="#cc241d" opacity="0.45" font-size="7">◉</text>
  <text x="1033" y="540" fill="#bdae93" font-size="10">usbguard.nix</text>
  <text x="1022" y="558" fill="#cc241d" opacity="0.45" font-size="7">◉</text>
  <text x="1033" y="558" fill="#bdae93" font-size="10">clamav.nix</text>
  <text x="1022" y="576" fill="#cc241d" opacity="0.45" font-size="7">◉</text>
  <text x="1033" y="576" fill="#bdae93" font-size="10">aide.nix</text>
  <line x1="1015" y1="588" x2="1145" y2="588" stroke="#cc241d" stroke-width="0.15" opacity="0.2"/>
  <text x="1022" y="606" fill="#665c54" font-size="8">firejail sandboxing</text>
  <text x="1022" y="620" fill="#665c54" font-size="8">USBGuard whitelisting</text>
  <text x="1022" y="634" fill="#665c54" font-size="8">kernel hardening, auditd</text>
  <text x="1022" y="648" fill="#665c54" font-size="8">ClamAV realtime, AIDE</text>

  <!-- ══════════════════════════════════════════════ -->
  <!--  LEGEND                                       -->
  <!-- ══════════════════════════════════════════════ -->
  <line x1="42" y1="750" x2="1398" y2="750" stroke="#3c3836" stroke-width="0.6"/>

  <line x1="56" y1="778" x2="90" y2="778" stroke="#fb4934" stroke-width="1" marker-end="url(#a)"/>
  <text x="100" y="782" fill="#a89984" font-size="10">required</text>

  <line x1="176" y1="778" x2="210" y2="778" stroke="#8ec07c" stroke-width="1" marker-end="url(#a)"/>
  <text x="220" y="782" fill="#a89984" font-size="10">module</text>

  <line x1="290" y1="778" x2="324" y2="778" stroke="#928374" stroke-width="0.7" stroke-dasharray="4 3"/>
  <text x="334" y="782" fill="#a89984" font-size="10">optional</text>

  <text x="420" y="782" fill="#689d6a" font-size="11">◉</text>
  <text x="436" y="782" fill="#a89984" font-size="10">cockpit toggle (true/false in configuration.nix)</text>

  <text x="820" y="782" fill="#458588" opacity="0.5" font-size="11">●</text>
  <text x="836" y="782" fill="#a89984" font-size="10">always on</text>

  <!-- Footer -->
  <text x="720" y="808" text-anchor="middle" fill="#3c3836" font-size="9">github.com/daskladas/lapdots</text>

</svg>
